<svg viewBox="0 0 330.0000305175781 200.00001525878906" xmlns="http://www.w3.org/2000/svg"><g><g><g><g><g><line x1="53.1875" y1="176" x2="48.1875" y2="176" style="visibility: inherit;" fill="rgb(0, 0, 0)" stroke="rgb(204, 204, 204)" stroke-width="1px"></line><line x1="53.1875" y1="150.85714285714286" x2="48.1875" y2="150.85714285714286" style="visibility: inherit;" fill="rgb(0, 0, 0)" stroke="rgb(204, 204, 204)" stroke-width="1px"></line><line x1="53.1875" y1="125.7142857142857" x2="48.1875" y2="125.7142857142857" style="visibility: inherit;" fill="rgb(0, 0, 0)" stroke="rgb(204, 204, 204)" stroke-width="1px"></line><line x1="53.1875" y1="100.57142857142857" x2="48.1875" y2="100.57142857142857" style="visibility: inherit;" fill="rgb(0, 0, 0)" stroke="rgb(204, 204, 204)" stroke-width="1px"></line><line x1="53.1875" y1="75.42857142857142" x2="48.1875" y2="75.42857142857142" style="visibility: inherit;" fill="rgb(0, 0, 0)" stroke="rgb(204, 204, 204)" stroke-width="1px"></line><line x1="53.1875" y1="50.285714285714285" x2="48.1875" y2="50.285714285714285" style="visibility: inherit;" fill="rgb(0, 0, 0)" stroke="rgb(204, 204, 204)" stroke-width="1px"></line><line x1="53.1875" y1="25.14285714285713" x2="48.1875" y2="25.14285714285713" style="visibility: inherit;" fill="rgb(0, 0, 0)" stroke="rgb(204, 204, 204)" stroke-width="1px"></line><line x1="53.1875" y1="0" x2="48.1875" y2="0" style="visibility: inherit;" fill="rgb(0, 0, 0)" stroke="rgb(204, 204, 204)" stroke-width="1px"></line></g><g transform="translate(43.1875, 0)"><text x="0" y="176" dx="0em" dy="0.3em" style="text-anchor: end; visibility: hidden; font-family: Roboto, sans-serif; font-size: 12px; font-weight: 200;" fill="rgb(33, 33, 33)" stroke="none" stroke-width="1px">0</text><text x="0" y="150.85714285714286" dx="0em" dy="0.3em" style="text-anchor: end; visibility: inherit; font-family: Roboto, sans-serif; font-size: 12px; font-weight: 200;" fill="rgb(33, 33, 33)" stroke="none" stroke-width="1px">0.05</text><text x="0" y="125.7142857142857" dx="0em" dy="0.3em" style="text-anchor: end; visibility: inherit; font-family: Roboto, sans-serif; font-size: 12px; font-weight: 200;" fill="rgb(33, 33, 33)" stroke="none" stroke-width="1px">0.1</text><text x="0" y="100.57142857142857" dx="0em" dy="0.3em" style="text-anchor: end; visibility: inherit; font-family: Roboto, sans-serif; font-size: 12px; font-weight: 200;" fill="rgb(33, 33, 33)" stroke="none" stroke-width="1px">0.15</text><text x="0" y="75.42857142857142" dx="0em" dy="0.3em" style="text-anchor: end; visibility: inherit; font-family: Roboto, sans-serif; font-size: 12px; font-weight: 200;" fill="rgb(33, 33, 33)" stroke="none" stroke-width="1px">0.2</text><text x="0" y="50.285714285714285" dx="0em" dy="0.3em" style="text-anchor: end; visibility: inherit; font-family: Roboto, sans-serif; font-size: 12px; font-weight: 200;" fill="rgb(33, 33, 33)" stroke="none" stroke-width="1px">0.25</text><text x="0" y="25.14285714285713" dx="0em" dy="0.3em" style="text-anchor: end; visibility: inherit; font-family: Roboto, sans-serif; font-size: 12px; font-weight: 200;" fill="rgb(33, 33, 33)" stroke="none" stroke-width="1px">0.3</text><text x="0" y="0" dx="0em" dy="0.3em" style="text-anchor: end; visibility: hidden; font-family: Roboto, sans-serif; font-size: 12px; font-weight: 200;" fill="rgb(33, 33, 33)" stroke="none" stroke-width="1px">0.35</text></g><line x1="53.1875" y1="0" x2="53.1875" y2="176" fill="rgb(0, 0, 0)" stroke="rgb(204, 204, 204)" stroke-width="1px"></line></g></g><g transform="translate(53, 0)" clip-path="url(#clip_0)"><clipPath id="clip_0"><rect width="276" height="175"></rect></clipPath><g><g><g><line x1="0" y1="0" x2="0" y2="176" fill="rgb(0, 0, 0)" stroke="rgb(66, 66, 66)" stroke-width="1px" opacity="0.25"></line><line x1="23.067708333333332" y1="0" x2="23.067708333333332" y2="176" fill="rgb(0, 0, 0)" stroke="rgb(66, 66, 66)" stroke-width="1px" opacity="0.25"></line><line x1="46.135416666666664" y1="0" x2="46.135416666666664" y2="176" fill="rgb(0, 0, 0)" stroke="rgb(66, 66, 66)" stroke-width="1px" opacity="0.25"></line><line x1="69.203125" y1="0" x2="69.203125" y2="176" fill="rgb(0, 0, 0)" stroke="rgb(66, 66, 66)" stroke-width="1px" opacity="0.25"></line><line x1="92.27083333333333" y1="0" x2="92.27083333333333" y2="176" fill="rgb(0, 0, 0)" stroke="rgb(66, 66, 66)" stroke-width="1px" opacity="0.25"></line><line x1="115.33854166666667" y1="0" x2="115.33854166666667" y2="176" fill="rgb(0, 0, 0)" stroke="rgb(66, 66, 66)" stroke-width="1px" opacity="0.25"></line><line x1="138.40625" y1="0" x2="138.40625" y2="176" fill="rgb(0, 0, 0)" stroke="rgb(66, 66, 66)" stroke-width="1px" opacity="0.25"></line><line x1="161.47395833333334" y1="0" x2="161.47395833333334" y2="176" fill="rgb(0, 0, 0)" stroke="rgb(66, 66, 66)" stroke-width="1px" opacity="0.25"></line><line x1="184.54166666666666" y1="0" x2="184.54166666666666" y2="176" fill="rgb(0, 0, 0)" stroke="rgb(66, 66, 66)" stroke-width="1px" opacity="0.25"></line><line x1="207.609375" y1="0" x2="207.609375" y2="176" fill="rgb(0, 0, 0)" stroke="rgb(66, 66, 66)" stroke-width="1px" opacity="0.25"></line><line x1="230.67708333333334" y1="0" x2="230.67708333333334" y2="176" fill="rgb(0, 0, 0)" stroke="rgb(66, 66, 66)" stroke-width="1px" opacity="0.25"></line><line x1="253.74479166666666" y1="0" x2="253.74479166666666" y2="176" fill="rgb(0, 0, 0)" stroke="rgb(66, 66, 66)" stroke-width="1px" opacity="0.25"></line><line x1="276.8125" y1="0" x2="276.8125" y2="176" fill="rgb(0, 0, 0)" stroke="rgb(66, 66, 66)" stroke-width="1px" opacity="0.25"></line></g><g><line x1="0" y1="176" x2="276.8125" y2="176" fill="rgb(0, 0, 0)" stroke="rgb(66, 66, 66)" stroke-width="1px" opacity="0.25"></line><line x1="0" y1="150.85714285714286" x2="276.8125" y2="150.85714285714286" fill="rgb(0, 0, 0)" stroke="rgb(66, 66, 66)" stroke-width="1px" opacity="0.25"></line><line x1="0" y1="125.7142857142857" x2="276.8125" y2="125.7142857142857" fill="rgb(0, 0, 0)" stroke="rgb(66, 66, 66)" stroke-width="1px" opacity="0.25"></line><line x1="0" y1="100.57142857142857" x2="276.8125" y2="100.57142857142857" fill="rgb(0, 0, 0)" stroke="rgb(66, 66, 66)" stroke-width="1px" opacity="0.25"></line><line x1="0" y1="75.42857142857142" x2="276.8125" y2="75.42857142857142" fill="rgb(0, 0, 0)" stroke="rgb(66, 66, 66)" stroke-width="1px" opacity="0.25"></line><line x1="0" y1="50.285714285714285" x2="276.8125" y2="50.285714285714285" fill="rgb(0, 0, 0)" stroke="rgb(66, 66, 66)" stroke-width="1px" opacity="0.25"></line><line x1="0" y1="25.14285714285713" x2="276.8125" y2="25.14285714285713" fill="rgb(0, 0, 0)" stroke="rgb(66, 66, 66)" stroke-width="1px" opacity="0.25"></line><line x1="0" y1="0" x2="276.8125" y2="0" fill="rgb(0, 0, 0)" stroke="rgb(66, 66, 66)" stroke-width="1px" opacity="0.25"></line></g></g></g><g><g><line x1="0" y1="176" x2="276.8125" y2="176" fill="rgb(0, 0, 0)" stroke="rgb(153, 153, 153)" stroke-width="1.5px"></line></g></g><g><g><line x1="23.067708333333332" y1="0" x2="23.067708333333332" y2="176" fill="rgb(0, 0, 0)" stroke="rgb(153, 153, 153)" stroke-width="1.5px"></line></g></g><g><g><g><g><g><path stroke="rgb(255, 112, 67)" stroke-width="2px" d="M34.578494791666664,-2.7634143959940722L35.73188020833333,17.83351595237595L36.885265625,35.858669273979174L38.03865104166667,51.68181290841168L39.192036458333334,65.3816022287076L40.345421875,77.7221334141787L41.498807291666665,88.45178578311746L42.65219270833333,97.59960753812624L43.805578125000004,106.13244901846333L44.95896354166666,113.55168751904992L46.112348958333335,119.72110996832455L47.265734375,125.02946160578841L48.41911979166667,130.125577475412L49.57250520833334,134.17386310603476L50.725890625,138.23601989622608L51.87927604166667,141.51864299067293L53.03266145833333,144.7092471479157L54.186046875,147.26993036926117L55.33943229166667,149.55218958306423L56.492817708333334,151.1782555806072L57.646203125,153.10353169838018L58.799588541666665,154.59987107118678L59.95297395833333,156.38362935549398L61.106359375000004,157.5648828951308L62.25974479166666,158.5078881958859L63.413130208333335,159.4297664404218L64.56651562500001,160.17394971802563L65.71990104166666,160.9798892474231L66.87328645833334,161.42029266213464L68.026671875,162.00778282676828L69.18005729166667,162.68834523842105L70.33344270833334,163.01721320527753L71.48682812499999,163.35898903561747L72.64021354166667,163.65035085715755L73.79359895833333,163.91942968680812L74.946984375,164.31895686122095L76.10036979166667,164.49554787231142L77.25375520833333,164.57360109921342L78.407140625,164.80451681449347L79.56052604166666,165.01881908427112L80.71391145833334,165.0574219257009L81.86729687500001,165.29895995150818L83.02068229166666,165.405719758915L84.17406770833333,165.56514511741273L85.327453125,165.4391954595269L86.48083854166667,165.3835257107414L87.63422395833334,165.72369215620338L88.78760937499999,165.73374829792013L89.94099479166667,165.73819311255895L91.09438020833333,165.7401577206293L92.247765625,165.9935610281977L93.40115104166667,166.02138714742503L94.55453645833333,165.80921072222816L95.707921875,166.19243926298782L96.86130729166666,166.36182627800355L98.01469270833334,166.32445729236906L99.16807812500001,166.25182143890666L100.32146354166666,166.0233007253345L101.47484895833333,166.2028883789953L102.628234375,166.28226612191338L103.78161979166667,166.14899479884735L104.93500520833334,166.39874258666543L106.08839062499999,166.39689358525712L107.24177604166667,166.3680164230811L108.39516145833333,166.43943138276478L109.548546875,166.58323431856888L110.70193229166667,166.42231964629894L111.85531770833333,166.49149278833303L113.008703125,166.60624545983003L114.16208854166666,166.34831242801846L115.31547395833334,166.45878159785306L116.46885937500001,166.39537092464852L117.62224479166666,166.59181897698744L118.77563020833333,166.65058963521525L119.929015625,166.67656626615198L121.08240104166667,166.688047937026L122.23578645833334,166.7211822164583L123.38917187499999,166.76388694887333L124.54255729166667,166.36187120436367L125.69594270833333,166.4086558151857L126.849328125,166.54157213679292L128.00271354166665,166.76867795902675L129.15609895833333,166.67264254346472L130.309484375,166.68631365159823L131.46286979166666,166.77653442411113L132.61625520833334,166.87253129002136L133.769640625,166.85884262029418L134.92302604166667,166.88085160918072L136.07641145833333,166.89057958226857L137.229796875,167.03517677355083L138.38318229166666,167.0149105893797L139.53656770833334,167.034012316882L140.689953125,167.07051466134402L141.84333854166667,167.14276745940813L142.99672395833332,167.3430600042359L144.150109375,167.1509949773425L145.30349479166668,167.1502803781735L146.45688020833333,166.98160771725742L147.610265625,167.0754112092159L148.76365104166666,167.06075359084963L149.9170364583333,167.2506905898735L151.070421875,167.27852398163012L152.22380729166667,167.2627669598806L153.37719270833335,167.19968359445534L154.530578125,167.22791950874932L155.68396354166666,167.21234040196128L156.83734895833334,167.23351381766696L157.990734375,167.24287246740886L159.14411979166667,167.24700899059476L160.29750520833332,167.02436176394764L161.450890625,167.12236787875895L162.60427604166668,166.63255729899697L163.75766145833333,166.7247147353554L164.911046875,166.79350770313184L166.06443229166666,167.0764491456903L167.2178177083333,167.20150926330115L168.371203125,167.22872645437917L169.52458854166667,167.35299397645952L170.67797395833335,167.4359801247726L171.831359375,167.3884813369615L172.98474479166666,167.339427491843L174.13813020833334,167.23356754958274L175.291515625,167.41125302499904L176.44490104166667,167.1811362925198L177.59828645833332,167.36001902847124L178.751671875,167.38296591330226L179.90505729166668,167.4492277208571L181.05844270833333,167.39433677443083L182.211828125,167.42619373792238L183.36521354166666,167.44027451578563L184.5185989583333,166.96948822155213L185.671984375,167.18229191573803L186.82536979166667,167.2202323867563L187.97875520833335,167.37729950212378L189.132140625,167.4467231671162L190.28552604166666,167.4493485234893L191.43891145833334,167.50662821546575L192.592296875,167.44776717395382L193.74568229166667,167.3936912126996L194.89906770833332,167.31367087601328L196.052453125,167.39053941082182L197.20583854166668,167.36839654139524L198.35922395833333,167.33055001220274L199.512609375,167.48217865438303L200.66599479166666,167.46501984886123L201.8193802083333,167.42937627591465L202.972765625,167.46974110113177L204.12615104166667,167.5156417347837L205.27953645833335,167.36757300677448L206.432921875,167.52660219888972L207.58630729166666,167.5407743399927L208.73969270833334,167.49091914190072L209.893078125,167.60918057152148L211.04646354166667,167.57727398069596L212.19984895833332,167.56317126755107L213.353234375,167.52887848743507L214.50661979166668,167.56983984043572L215.66000520833333,167.64406352027396L216.813390625,167.53657295958504L217.96677604166666,167.5171220353141L219.1201614583333,167.56464348859828L220.273546875,167.6417667327618L221.42693229166667,167.64779582577611L222.58031770833335,167.70657944670037L223.733703125,167.648383664431L224.88708854166666,167.4823637014905L226.04047395833334,167.60539906686017L227.193859375,167.68784007925953L228.34724479166667,167.52786281775067L229.50063020833332,167.73774719987105L230.654015625,167.6902191922384L231.80740104166668,167.6411524319588L232.96078645833333,167.61946492391522L234.114171875,167.72211656898384L235.26755729166666,167.65525107248027L236.4209427083333,167.68181528483765L237.574328125,167.63743790488766L238.72771354166667,167.5897637220438L239.88109895833335,167.70898863775668L241.034484375,167.7336266695958L242.18786979166666,167.60421977513883L243.34125520833334,167.6031406896008L244.494640625,167.5184850684275L245.64802604166667,167.7336022346702L246.80141145833332,167.8006246412435L247.954796875,167.88636730676083L249.10818229166668,167.8400874222016L250.26156770833333,167.76351295141447L251.414953125,167.78578579713852L252.56833854166666,167.71145225223063L253.7217239583333,167.81889372991117L254.875109375,167.81026410123405L256.0284947916667,167.7783904244528L257.1818802083333,167.76430225931546L258.33526562500003,166.91629229520296L259.4886510416667,167.13071993538574L260.64203645833334,167.36579437952395L261.795421875,167.44163790292708L262.94880729166664,167.47516074027126L264.1021927083333,167.5741559770953L265.255578125,167.6459712526775L266.40896354166665,167.48129741549545L267.56234895833336,167.68910591116827L268.715734375,167.75289788534968" style="fill: none;" fill="none"></path></g></g></g></g><g opacity="0.2"><g><g><g><path stroke="rgb(255, 112, 67)" stroke-width="2px" d="M33.425109375,-5.229709897722511L34.578494791666664,15.739435740879593L35.73188020833333,34.144004004342214L36.885265625,50.134862082345144L38.03865104166667,64.2148606436593L39.192036458333334,76.23313999176025L40.345421875,87.4971433367048L41.498807291666665,96.95086029597691L42.65219270833333,104.84571620396206L43.805578125000004,112.89143180847168L44.95896354166666,119.4285729272025L46.112348958333335,124.607999256679L47.265734375,129.23428460529874L48.41911979166667,134.16228560038974L49.57250520833334,137.380569594247L50.725890625,141.45371396200997L51.87927604166667,144.11885697501046L53.03266145833333,147.23657158442904L54.186046875,149.2982851777758L55.33943229166667,151.36000064441134L56.492817708333334,152.46628635270255L57.646203125,154.62857120377677L58.799588541666665,155.78514347757613L59.95297395833333,157.7965705054147L61.106359375000004,158.50057118279594L62.25974479166666,159.25485655239652L63.413130208333335,160.1599997452327L64.56651562500001,160.76342822824205L65.71990104166666,161.61828579221452L66.87328645833334,161.76914267880576L68.026671875,162.47314241954257L69.18005729166667,163.22742872578758L70.33344270833334,163.27771435465132L71.48682812499999,163.62971469334195L72.64021354166667,163.88114283766066L73.79359895833333,164.13257098197937L74.946984375,164.6354282072612L76.10036979166667,164.6354282072612L77.25375520833333,164.6354282072612L78.407140625,164.98742854595184L79.56052604166666,165.18857106140683L80.71391145833334,165.08799980367934L81.86729687500001,165.4902857712337L83.02068229166666,165.4902857712337L84.17406770833333,165.69142828668868L85.327453125,165.33942888464247L86.48083854166667,165.33942888464247L87.63422395833334,165.99314299651553L88.78760937499999,165.7417139155524L89.94099479166667,165.7417139155524L91.09438020833333,165.7417139155524L92.247765625,166.19428551197052L93.40115104166667,166.0434286253793L94.55453645833333,165.64114265782493L95.707921875,166.4960002217974L96.86130729166666,166.4960002217974L98.01469270833334,166.29485676969801L99.16807812500001,166.19428551197052L100.32146354166666,165.84228610992432L101.47484895833333,166.34514239856173L102.628234375,166.34514239856173L103.78161979166667,166.0434286253793L104.93500520833334,166.59657147952487L106.08839062499999,166.3954289640699L107.24177604166667,166.34514239856173L108.39516145833333,166.4960002217974L109.548546875,166.69714273725236L110.70193229166667,166.29485676969801L111.85531770833333,166.54628585066115L113.008703125,166.69714273725236L114.16208854166666,166.14399988310677L115.31547395833334,166.54628585066115L116.46885937500001,166.34514239856173L117.62224479166666,166.7474283661161L118.77563020833333,166.69714273725236L119.929015625,166.69714273725236L121.08240104166667,166.69714273725236L122.23578645833334,166.7474283661161L123.38917187499999,166.79771399497986L124.54255729166667,166.0434286253793L125.69594270833333,166.44571459293365L126.849328125,166.64685710838864L128.00271354166665,166.9485718182155L129.15609895833333,166.59657147952487L130.309484375,166.69714273725236L131.46286979166666,166.8479996238436L132.61625520833334,166.9485718182155L133.769640625,166.8479996238436L134.92302604166667,166.89828525270735L136.07641145833333,166.89828525270735L137.229796875,167.1497143336705L138.38318229166666,166.99885744707925L139.53656770833334,167.049143075943L140.689953125,167.09942870480674L141.84333854166667,167.1999999625342L142.99672395833332,167.50171467236112L144.150109375,166.99885744707925L145.30349479166668,167.1497143336705L146.45688020833333,166.8479996238436L147.610265625,167.1497143336705L148.76365104166666,167.049143075943L149.9170364583333,167.4011424779892L151.070421875,167.3005712202617L152.22380729166667,167.25028559139798L153.37719270833335,167.1497143336705L154.530578125,167.25028559139798L155.68396354166666,167.1999999625342L156.83734895833334,167.25028559139798L157.990734375,167.25028559139798L159.14411979166667,167.25028559139798L160.29750520833332,166.8479996238436L161.450890625,167.1999999625342L162.60427604166668,166.24457114083427L163.75766145833333,166.79771399497986L164.911046875,166.8479996238436L166.06443229166666,167.3005712202617L167.2178177083333,167.3005712202617L168.371203125,167.25028559139798L169.52458854166667,167.45142810685294L170.67797395833335,167.50171467236112L171.831359375,167.35085684912545L172.98474479166666,167.3005712202617L174.13813020833334,167.1497143336705L175.291515625,167.55200030122484L176.44490104166667,166.99885744707925L177.59828645833332,167.50171467236112L178.751671875,167.4011424779892L179.90505729166668,167.50171467236112L181.05844270833333,167.35085684912545L182.211828125,167.45142810685294L183.36521354166666,167.45142810685294L184.5185989583333,166.59657147952487L185.671984375,167.35085684912545L186.82536979166667,167.25028559139798L187.97875520833335,167.50171467236112L189.132140625,167.50171467236112L190.28552604166666,167.45142810685294L191.43891145833334,167.55200030122484L192.592296875,167.4011424779892L193.74568229166667,167.35085684912545L194.89906770833332,167.25028559139798L196.052453125,167.45142810685294L197.20583854166668,167.35085684912545L198.35922395833333,167.3005712202617L199.512609375,167.60228593008858L200.66599479166666,167.45142810685294L201.8193802083333,167.4011424779892L202.972765625,167.50171467236112L204.12615104166667,167.55200030122484L205.27953645833335,167.25028559139798L206.432921875,167.65257155895233L207.58630729166666,167.55200030122484L208.73969270833334,167.45142810685294L209.893078125,167.70285718781608L211.04646354166667,167.55200030122484L212.19984895833332,167.55200030122484L213.353234375,167.50171467236112L214.50661979166668,167.60228593008858L215.66000520833333,167.70285718781608L216.813390625,167.45142810685294L217.96677604166666,167.50171467236112L219.1201614583333,167.60228593008858L220.273546875,167.70285718781608L221.42693229166667,167.65257155895233L222.58031770833335,167.75314281667983L223.733703125,167.60228593008858L224.88708854166666,167.35085684912545L226.04047395833334,167.70285718781608L227.193859375,167.75314281667983L228.34724479166667,167.4011424779892L229.50063020833332,167.90399970327104L230.654015625,167.65257155895233L231.80740104166668,167.60228593008858L232.96078645833333,167.60228593008858L234.114171875,167.80342844554355L235.26755729166666,167.60228593008858L236.4209427083333,167.70285718781608L237.574328125,167.60228593008858L238.72771354166667,167.55200030122484L239.88109895833335,167.80342844554355L241.034484375,167.75314281667983L242.18786979166666,167.50171467236112L243.34125520833334,167.60228593008858L244.494640625,167.45142810685294L245.64802604166667,167.90399970327104L246.80141145833332,167.85371407440732L247.954796875,167.9542853321348L249.10818229166668,167.80342844554355L250.26156770833333,167.70285718781608L251.414953125,167.80342844554355L252.56833854166666,167.65257155895233L253.7217239583333,167.90399970327104L254.875109375,167.80342844554355L256.0284947916667,167.75314281667983L257.1818802083333,167.75314281667983L258.33526562500003,166.24457114083427L259.4886510416667,167.3005712202617L260.64203645833334,167.55200030122484L261.795421875,167.50171467236112L262.94880729166664,167.50171467236112L264.1021927083333,167.65257155895233L265.255578125,167.70285718781608L266.40896354166665,167.35085684912545L267.56234895833336,167.85371407440732L268.715734375,167.80342844554355" style="fill: none;" fill="none"></path></g></g></g></g></g></g><g transform="translate(53, 176)" clip-path="url(#clip_1)"><clipPath id="clip_1"><rect width="276" height="23"></rect></clipPath><g><g><line x1="0" y1="0" x2="0" y2="5" style="visibility: inherit;" fill="rgb(0, 0, 0)" stroke="rgb(204, 204, 204)" stroke-width="1px"></line><line x1="23.067708333333332" y1="0" x2="23.067708333333332" y2="5" style="visibility: inherit;" fill="rgb(0, 0, 0)" stroke="rgb(204, 204, 204)" stroke-width="1px"></line><line x1="46.135416666666664" y1="0" x2="46.135416666666664" y2="5" style="visibility: inherit;" fill="rgb(0, 0, 0)" stroke="rgb(204, 204, 204)" stroke-width="1px"></line><line x1="69.203125" y1="0" x2="69.203125" y2="5" style="visibility: inherit;" fill="rgb(0, 0, 0)" stroke="rgb(204, 204, 204)" stroke-width="1px"></line><line x1="92.27083333333333" y1="0" x2="92.27083333333333" y2="5" style="visibility: inherit;" fill="rgb(0, 0, 0)" stroke="rgb(204, 204, 204)" stroke-width="1px"></line><line x1="115.33854166666667" y1="0" x2="115.33854166666667" y2="5" style="visibility: inherit;" fill="rgb(0, 0, 0)" stroke="rgb(204, 204, 204)" stroke-width="1px"></line><line x1="138.40625" y1="0" x2="138.40625" y2="5" style="visibility: inherit;" fill="rgb(0, 0, 0)" stroke="rgb(204, 204, 204)" stroke-width="1px"></line><line x1="161.47395833333334" y1="0" x2="161.47395833333334" y2="5" style="visibility: inherit;" fill="rgb(0, 0, 0)" stroke="rgb(204, 204, 204)" stroke-width="1px"></line><line x1="184.54166666666666" y1="0" x2="184.54166666666666" y2="5" style="visibility: inherit;" fill="rgb(0, 0, 0)" stroke="rgb(204, 204, 204)" stroke-width="1px"></line><line x1="207.609375" y1="0" x2="207.609375" y2="5" style="visibility: inherit;" fill="rgb(0, 0, 0)" stroke="rgb(204, 204, 204)" stroke-width="1px"></line><line x1="230.67708333333334" y1="0" x2="230.67708333333334" y2="5" style="visibility: inherit;" fill="rgb(0, 0, 0)" stroke="rgb(204, 204, 204)" stroke-width="1px"></line><line x1="253.74479166666666" y1="0" x2="253.74479166666666" y2="5" style="visibility: inherit;" fill="rgb(0, 0, 0)" stroke="rgb(204, 204, 204)" stroke-width="1px"></line><line x1="276.8125" y1="0" x2="276.8125" y2="5" style="visibility: inherit;" fill="rgb(0, 0, 0)" stroke="rgb(204, 204, 204)" stroke-width="1px"></line></g><g transform="translate(0, 8)"><text x="0" y="0" dx="0em" dy="0.95em" style="text-anchor: middle; visibility: hidden; font-family: Roboto, sans-serif; font-size: 12px; font-weight: 200;" fill="rgb(33, 33, 33)" stroke="none" stroke-width="1px">-1k</text><text x="23.067708333333332" y="0" dx="0em" dy="0.95em" style="text-anchor: middle; visibility: inherit; font-family: Roboto, sans-serif; font-size: 12px; font-weight: 200;" fill="rgb(33, 33, 33)" stroke="none" stroke-width="1px">0</text><text x="46.135416666666664" y="0" dx="0em" dy="0.95em" style="text-anchor: middle; visibility: inherit; font-family: Roboto, sans-serif; font-size: 12px; font-weight: 200;" fill="rgb(33, 33, 33)" stroke="none" stroke-width="1px">1k</text><text x="69.203125" y="0" dx="0em" dy="0.95em" style="text-anchor: middle; visibility: inherit; font-family: Roboto, sans-serif; font-size: 12px; font-weight: 200;" fill="rgb(33, 33, 33)" stroke="none" stroke-width="1px">2k</text><text x="92.27083333333333" y="0" dx="0em" dy="0.95em" style="text-anchor: middle; visibility: inherit; font-family: Roboto, sans-serif; font-size: 12px; font-weight: 200;" fill="rgb(33, 33, 33)" stroke="none" stroke-width="1px">3k</text><text x="115.33854166666667" y="0" dx="0em" dy="0.95em" style="text-anchor: middle; visibility: inherit; font-family: Roboto, sans-serif; font-size: 12px; font-weight: 200;" fill="rgb(33, 33, 33)" stroke="none" stroke-width="1px">4k</text><text x="138.40625" y="0" dx="0em" dy="0.95em" style="text-anchor: middle; visibility: inherit; font-family: Roboto, sans-serif; font-size: 12px; font-weight: 200;" fill="rgb(33, 33, 33)" stroke="none" stroke-width="1px">5k</text><text x="161.47395833333334" y="0" dx="0em" dy="0.95em" style="text-anchor: middle; visibility: inherit; font-family: Roboto, sans-serif; font-size: 12px; font-weight: 200;" fill="rgb(33, 33, 33)" stroke="none" stroke-width="1px">6k</text><text x="184.54166666666666" y="0" dx="0em" dy="0.95em" style="text-anchor: middle; visibility: inherit; font-family: Roboto, sans-serif; font-size: 12px; font-weight: 200;" fill="rgb(33, 33, 33)" stroke="none" stroke-width="1px">7k</text><text x="207.609375" y="0" dx="0em" dy="0.95em" style="text-anchor: middle; visibility: inherit; font-family: Roboto, sans-serif; font-size: 12px; font-weight: 200;" fill="rgb(33, 33, 33)" stroke="none" stroke-width="1px">8k</text><text x="230.67708333333334" y="0" dx="0em" dy="0.95em" style="text-anchor: middle; visibility: inherit; font-family: Roboto, sans-serif; font-size: 12px; font-weight: 200;" fill="rgb(33, 33, 33)" stroke="none" stroke-width="1px">9k</text><text x="253.74479166666666" y="0" dx="0em" dy="0.95em" style="text-anchor: middle; visibility: inherit; font-family: Roboto, sans-serif; font-size: 12px; font-weight: 200;" fill="rgb(33, 33, 33)" stroke="none" stroke-width="1px">10k</text><text x="276.8125" y="0" dx="0em" dy="0.95em" style="text-anchor: middle; visibility: hidden; font-family: Roboto, sans-serif; font-size: 12px; font-weight: 200;" fill="rgb(33, 33, 33)" stroke="none" stroke-width="1px">11k</text></g><line x1="0" y1="0" x2="276.8125" y2="0" fill="rgb(0, 0, 0)" stroke="rgb(204, 204, 204)" stroke-width="1px"></line></g></g></g></g></svg>